<?xml version="1.0" encoding="utf-8"?>
<!-- Generator: Adobe Illustrator 22.0.0, SVG Export Plug-In . SVG Version: 6.00 Build 0)  -->
<svg version="1.1" id="Layer_1" xmlns="http://www.w3.org/2000/svg" xmlns:xlink="http://www.w3.org/1999/xlink" x="0px" y="0px"
	 viewBox="0 0 354.8 105.4" style="enable-background:new 0 0 354.8 105.4;" xml:space="preserve">
<style type="text/css">
	.st0{fill-rule:evenodd;clip-rule:evenodd;}
	.st1{fill-rule:evenodd;clip-rule:evenodd;fill:#FF290B;}
	.st2{fill-rule:evenodd;clip-rule:evenodd;fill:#FFFFFF;}
</style>
<g>
	<path class="st0" d="M159.5,44.3l-7-2.7c-1.8,3.1-3.8,4.6-5.9,4.6c-1.5,0-2.8-0.6-3.9-1.7c-1.1-1.2-1.9-2.5-2.3-4.2
		c-0.4-1.6-0.7-3.3-0.7-5.2c0-1.3,0.1-2.6,0.3-3.8c0.2-1.2,0.6-2.4,1.1-3.5c0.5-1.1,1.2-2,2.2-2.7c0.9-0.7,2-1,3.3-1
		c1.3,0,2.4,0.4,3.3,1.1c0.9,0.7,1.8,1.8,2.8,3.3l6.8-3.1c-0.9-2.3-2.5-4.2-4.8-5.8c-2.2-1.6-4.9-2.4-8.1-2.4
		c-2.6,0-4.9,0.6-6.9,1.7c-2,1.1-3.5,2.6-4.6,4.4c-1.1,1.8-1.9,3.7-2.5,5.8c-0.5,2-0.8,4.1-0.8,6.2c0,2.3,0.3,4.5,0.8,6.5
		c0.5,2,1.3,3.9,2.4,5.7c1.1,1.8,2.6,3.2,4.6,4.2c2,1.1,4.3,1.6,6.9,1.6C152.4,53.3,156.7,50.3,159.5,44.3z"/>
	<path class="st0" d="M175.8,45.3c-1-0.7-1.8-1.6-2.4-2.7c-0.6-1.1-1-2.3-1.3-3.5c-0.3-1.2-0.4-2.5-0.4-3.8c0-1.8,0.2-3.5,0.6-5.1
		c0.4-1.6,1.3-3,2.5-4.2c1.2-1.2,2.7-1.8,4.5-1.8c1.8,0,3.3,0.6,4.5,1.8c1.2,1.2,2,2.6,2.5,4.2c0.4,1.6,0.7,3.3,0.7,5.1
		c0,1.8-0.2,3.4-0.7,5c-0.5,1.6-1.3,3-2.5,4.2c-1.2,1.2-2.7,1.8-4.4,1.8C178,46.3,176.8,46,175.8,45.3z M186.5,51.7
		c2.1-1,3.7-2.4,4.9-4.2c1.2-1.8,2-3.7,2.6-5.8c0.6-2.1,0.9-4.2,0.9-6.5s-0.3-4.4-0.9-6.4c-0.6-2.1-1.5-4-2.6-5.8
		c-1.2-1.8-2.8-3.2-4.9-4.2c-2.1-1-4.5-1.6-7.1-1.6c-2.2,0-4.2,0.4-6,1c-1.8,0.7-3.3,1.6-4.4,2.8c-1.2,1.2-2.2,2.6-2.9,4.1
		c-0.8,1.6-1.4,3.2-1.7,4.8c-0.3,1.7-0.5,3.4-0.5,5.2c0,1.8,0.2,3.5,0.5,5.2c0.3,1.7,0.9,3.3,1.7,4.8c0.8,1.6,1.8,2.9,2.9,4.1
		c1.2,1.2,2.6,2.1,4.4,2.8c1.8,0.7,3.8,1,6,1C182.1,53.3,184.5,52.7,186.5,51.7z"/>
	<path class="st0" d="M218.4,53.8l12.6-35h-8.2l-7.6,22.1c-0.3,0.7-0.4,1.2-0.4,1.5l-0.2-0.5c-0.1-0.4-0.2-0.7-0.3-1l-7.5-22.1h-8.3
		l12.6,35H218.4z"/>
	<rect x="236.4" y="18.8" class="st0" width="7.6" height="35"/>
	<path class="st0" d="M259.7,46.8V25.7h6.5c2.6,0,4.6,1.1,6,3.2c1.4,2.1,2.1,4.6,2.1,7.4c0,2.8-0.7,5.3-2.1,7.4s-3.6,3.1-6.4,3.1
		H259.7z M252.1,53.8h12.7c2.5,0,4.7-0.4,6.7-1.1c2-0.7,3.6-1.6,4.9-2.8c1.3-1.1,2.4-2.5,3.3-4c0.9-1.5,1.5-3.1,1.9-4.7
		c0.4-1.6,0.5-3.2,0.5-4.9c0-2.3-0.3-4.4-1-6.4c-0.7-2-1.6-3.9-3-5.6c-1.3-1.7-3.1-3-5.4-4c-2.3-1-4.9-1.5-7.8-1.5h-12.9V53.8z"/>
	<rect x="288.1" y="35.8" class="st0" width="13.6" height="7"/>
	<path class="st0" d="M319.7,53.8v-35h-6.2c-0.8,2.7-3,4-6.5,4v6h5.1v25H319.7z"/>
	<path class="st0" d="M337.5,31.7c-1-0.7-1.4-1.8-1.4-3.2c0-1.3,0.5-2.3,1.5-3.1c1-0.8,2.3-1.1,4-1.1c1.5,0,2.7,0.4,3.6,1.2
		c0.9,0.8,1.4,1.8,1.4,3.1c0,1.4-0.5,2.5-1.4,3.2c-0.9,0.7-2.1,1.1-3.6,1.1C339.8,32.8,338.5,32.4,337.5,31.7z M349.7,47.3
		c3.4-4,5.1-9.5,5.1-16.5c0-4.1-1.1-7.4-3.3-9.9c-2.2-2.4-5.5-3.7-9.9-3.7c-3.8,0-6.9,1-9.4,3s-3.6,4.8-3.6,8.1
		c0,3.6,1.1,6.3,3.3,8.3c2.2,2,5.2,3,8.8,3c2.1,0,3.9-0.5,5.4-1.5c-1.7,5.4-5.7,8-12,8v7C341.1,53.3,346.2,51.3,349.7,47.3z"/>
	<polygon class="st1" points="145.1,68.7 145.1,66.8 133.6,66.8 133.6,68.7 138.3,68.7 138.3,83.8 140.4,83.8 140.4,68.7 	"/>
	<path class="st1" d="M158.6,83.8v-13h-2.1v7.7c0,2.2-1,3.3-2.8,3.3c-0.8,0-1.5-0.3-1.9-0.8c-0.5-0.5-0.7-1.4-0.7-2.5v-7.7H149v7.3
		c0,2,0.4,3.4,1.1,4.3c0.8,0.9,1.9,1.3,3.4,1.3c1.3,0,2.3-0.5,3.1-1.4v1.4H158.6z M157.1,68.2c0-0.4-0.1-0.7-0.4-1
		c-0.3-0.3-0.6-0.4-0.9-0.4c-0.4,0-0.7,0.1-0.9,0.4s-0.4,0.6-0.4,1c0,0.4,0.1,0.7,0.4,1s0.6,0.4,0.9,0.4c0.4,0,0.7-0.1,0.9-0.4
		C157,68.9,157.1,68.6,157.1,68.2z M152.9,68.2c0-0.4-0.1-0.7-0.4-1s-0.6-0.4-0.9-0.4c-0.4,0-0.7,0.1-0.9,0.4s-0.4,0.6-0.4,1
		c0,0.4,0.1,0.7,0.4,1s0.6,0.4,0.9,0.4c0.4,0,0.7-0.1,0.9-0.4S152.9,68.6,152.9,68.2z"/>
	<path class="st1" d="M165.9,83.8v-7.3c0-1.3,0.3-2.3,0.8-2.9c0.5-0.6,1.2-0.9,1.9-0.9c0.7,0,1.2,0.3,1.8,0.7l0.3-2.3
		c-0.5-0.3-1.1-0.4-1.9-0.4c-1.4,0-2.3,0.6-2.9,1.8v-1.8h-2.1v13H165.9z"/>
	<polygon class="st1" points="178.9,74.4 182.1,70.8 179.6,70.8 175.6,75.3 175.6,65.5 173.5,66.5 173.5,83.8 175.6,83.8 
		175.6,77.9 177.4,75.9 181.2,83.8 183.5,83.8 	"/>
	<path class="st1" d="M189.3,83.8v-13h-2.1v13H189.3z M189.6,68.2c0-0.4-0.1-0.7-0.4-1c-0.3-0.3-0.6-0.4-0.9-0.4s-0.7,0.2-0.9,0.4
		s-0.4,0.6-0.4,1c0,0.4,0.1,0.7,0.4,1s0.5,0.4,0.9,0.4c0.4,0,0.7-0.1,0.9-0.4C189.5,68.9,189.6,68.6,189.6,68.2z"/>
	<path class="st1" d="M197.5,88.8l6.4-18h-2.1l-3.1,9c-0.1,0.3-0.3,0.7-0.4,1.3c-0.1-0.6-0.3-1-0.4-1.3l-3-9h-2.1l4.5,12.8l-1.9,5.2
		H197.5z"/>
	<path class="st1" d="M210.1,73.5c0.6-0.5,1.4-0.8,2.3-0.8c0.8,0,1.4,0.3,2.1,0.7c0.6,0.5,0.9,1.3,0.9,2.3h-6.3
		C209.1,74.8,209.5,74,210.1,73.5z M216.4,82.1l-1.3-1.5c-0.8,0.8-1.6,1.2-2.6,1.2c-0.9,0-1.7-0.4-2.3-1.1c-0.6-0.7-1-1.7-1-2.9h8.3
		c0-0.5,0.1-0.9,0.1-1.3c0-1.9-0.5-3.3-1.4-4.2c-0.9-1-2.1-1.4-3.6-1.4c-1.7,0-3,0.6-4,1.7c-1,1.2-1.5,2.7-1.5,4.8
		c0,1.9,0.5,3.5,1.5,4.7c1,1.2,2.3,1.8,4,1.8C214,83.8,215.3,83.2,216.4,82.1z"/>
	<path class="st1" d="M232.5,83.8l3.2-11.5c0.2-0.7,0.3-1.2,0.4-1.7c0.1,0.2,0.2,0.8,0.4,1.7l3.2,11.5h1.6l3.6-17h-2.1l-2.3,11.1
		c-0.2,0.7-0.3,1.3-0.3,1.7c-0.1-0.4-0.2-0.9-0.4-1.7l-3-11.1h-1.6l-3,11.1c-0.3,1.2-0.4,1.8-0.4,1.8l-0.3-1.8l-2.1-11.1h-2.2
		l3.4,17H232.5z"/>
	<path class="st1" d="M251.2,73.5c0.6-0.5,1.4-0.8,2.3-0.8c0.8,0,1.4,0.3,2.1,0.7c0.6,0.5,0.9,1.3,0.9,2.3h-6.3
		C250.3,74.8,250.6,74,251.2,73.5z M257.5,82.1l-1.3-1.5c-0.8,0.8-1.6,1.2-2.6,1.2c-0.9,0-1.7-0.4-2.3-1.1c-0.6-0.7-1-1.7-1-2.9h8.3
		c0-0.5,0.1-0.9,0.1-1.3c0-1.9-0.5-3.3-1.4-4.2c-1-1-2.1-1.4-3.6-1.4c-1.7,0-3,0.6-4,1.7c-1,1.2-1.5,2.7-1.5,4.8
		c0,1.9,0.5,3.5,1.5,4.7c1,1.2,2.3,1.8,4,1.8C255.1,83.8,256.5,83.2,257.5,82.1z"/>
	<path class="st1" d="M265.9,81.3c-0.5-0.3-0.9-0.7-1.2-1.2v-5.7c0.2-0.4,0.6-0.8,1.1-1.1c0.5-0.3,1.1-0.5,1.7-0.5
		c1,0,1.8,0.4,2.4,1.2c0.5,0.8,0.8,1.9,0.8,3.4c0,1.4-0.3,2.5-0.8,3.3c-0.5,0.8-1.3,1.2-2.4,1.2C266.9,81.8,266.4,81.6,265.9,81.3z
		 M271.5,82.1c0.9-1.1,1.3-2.7,1.3-4.8c0-2-0.5-3.6-1.4-4.8c-0.9-1.2-2.1-1.7-3.7-1.7c-1.3,0-2.3,0.5-3.1,1.4v-6.4l-2.1,1v16.9h2.1
		v-1.3c0.9,0.8,2,1.3,3.1,1.3C269.3,83.8,270.6,83.2,271.5,82.1z"/>
	<path class="st1" d="M285.4,74.8v-6h4.5c1.1,0,2,0.3,2.5,0.9s0.8,1.3,0.8,2.1c0,0.8-0.3,1.5-0.8,2.1c-0.5,0.6-1.3,0.9-2.4,0.9
		H285.4z M285.4,83.8v-7h4.3c1.8,0,3.2-0.5,4.1-1.5c0.9-1,1.4-2.2,1.4-3.5c0-0.7-0.1-1.3-0.3-1.8c-0.2-0.6-0.5-1.1-0.9-1.6
		c-0.4-0.5-1-0.9-1.7-1.2c-0.7-0.3-1.6-0.4-2.6-0.4h-6.4v17H285.4z"/>
	<path class="st1" d="M300.1,77.3c0-1.4,0.3-2.6,0.9-3.3c0.6-0.8,1.4-1.2,2.4-1.2s1.8,0.4,2.4,1.2c0.6,0.8,0.9,1.9,0.9,3.3
		c0,1.4-0.3,2.5-0.9,3.3c-0.6,0.8-1.4,1.2-2.4,1.2s-1.9-0.4-2.4-1.2C300.4,79.8,300.1,78.7,300.1,77.3z M308.8,77.3
		c0-2-0.5-3.6-1.5-4.8c-1-1.2-2.3-1.7-4-1.7c-1.7,0-3,0.6-4,1.7c-1,1.2-1.5,2.8-1.5,4.8c0,2,0.5,3.6,1.5,4.8c1,1.2,2.3,1.7,4,1.7
		c1.6,0,3-0.6,4-1.7C308.3,80.9,308.8,79.3,308.8,77.3z"/>
	<path class="st1" d="M314.5,83.8v-7.3c0-1.3,0.3-2.3,0.8-2.9c0.5-0.6,1.2-0.9,1.9-0.9c0.7,0,1.2,0.3,1.8,0.7l0.3-2.3
		c-0.5-0.3-1.1-0.4-1.9-0.4c-1.4,0-2.3,0.6-2.9,1.8v-1.8h-2.1v13H314.5z"/>
	<path class="st1" d="M327.8,83.2l0.2-2.1c-0.7,0.4-1.3,0.7-1.8,0.7c-0.5,0-0.9-0.2-1-0.4C325,81,325,80.6,325,80v-7.3h3v-2h-3v-5.3
		l-2.1,1.1v4.2h-2v2h2v8c0,2,0.9,3,2.6,3C326.3,83.8,327.1,83.6,327.8,83.2z"/>
	<path class="st1" d="M333.8,81.1c-0.5-0.5-0.7-1.1-0.7-1.8c0-0.8,0.3-1.4,0.8-1.9c0.5-0.4,1.3-0.6,2.1-0.6c1,0,2,0.3,2.9,0.9V80
		c-0.9,1.2-2,1.8-3.2,1.8C334.9,81.8,334.3,81.6,333.8,81.1z M340.9,83.8v-8.4c0-3-1.4-4.6-4.4-4.6c-1.7,0-3.1,0.5-4.4,1.4l0.6,1.4
		c1.2-0.6,2.3-0.9,3.6-0.9c0.9,0,1.5,0.2,2,0.5c0.5,0.3,0.7,0.9,0.7,1.7v0.7c-0.9-0.6-2-0.9-3.2-0.9c-1.3,0-2.4,0.4-3.3,1.1
		c-0.9,0.8-1.3,1.9-1.3,3.3c0,1.5,0.4,2.6,1.1,3.4c0.8,0.8,1.8,1.2,3.1,1.2c1.3,0,2.5-0.5,3.5-1.4v1.4H340.9z"/>
	<polygon class="st1" points="347.8,83.8 347.8,65.8 345.7,66.8 345.7,83.8 	"/>
	<rect x="352.3" y="70.8" class="st1" width="2.1" height="13"/>
	<path class="st1" d="M107.6,59.9c-2.3-1.7-4.8-2-7.4-0.8c-2.6,1.2-5.4,1.9-8.3,1.5c-2-0.3-3.9-0.9-5.9-1.5
		c-1.3-0.4-2.2-1.3-2.3-2.7c-0.1-1.8,0-3.6,0-5.5c4.5,2,8,1.4,10.1-1.7c2-3,1.7-6.9-0.9-9.3c-1.3-1.2-2.8-1.9-4.5-2
		c-3-0.2-5.1,1.3-6.8,3.5l-5-7.9c0.8-0.6,1.6-1.3,2.5-1.9c2.1-1.4,4.6-1.9,7.1-2.2c3.1-0.3,5.2-2.1,6-5.1c0.8-2.9,0-5.5-2.3-7.5
		c-2.3-1.9-5-2.2-7.8-0.9c-2.5,1.2-3.7,3.4-3.9,6.1c-0.3,3.6-1.7,6.6-4.1,9l-7.7-4.9c0.8-1,1.9-2,2.5-3.3c0.5-1.2,0.8-2.8,0.7-4.1
		c-0.2-1.3-0.9-2.7-1.7-3.8c-2.1-2.6-6.1-3.2-8.9-1.4c-3.5,2.1-4.2,5.2-2.3,10.5c-0.9,0-1.7,0-2.6,0c-1,0-2.3,0.4-2.9,0
		c-0.7-0.5-0.7-1.9-1-2.9c-1.1-3.8-0.9-7.4,0.9-10.9c0.1-0.2,0.2-0.4,0.3-0.6c1.3-3.5-0.4-7.4-3.7-8.9c-3.4-1.5-7.4-0.2-9.2,3
		c-1.8,3.2-0.9,7.4,2.2,9.3c4.4,2.8,6.1,7.1,6.9,12c-3.7,1-7.1,2.7-10.3,5.1l-0.5-3.8c-0.4-3.2-2.9-5.7-6.1-6.1
		c-3.1-0.4-6.2,1.2-7.5,4.1c-2,4.4,0.9,9.4,5.7,10c1.1,0.1,2.3,0.3,3.4,0.5c-1.2,2-2.3,3.9-3.3,5.8c-0.9,1.8-2.4,2.5-4.4,2
		c-1.1-0.3-2.1-0.6-3.1-0.8c-3.6-0.9-6.4-3-8.6-6.1c-1.7-2.5-4.1-3.5-7-3c-2.9,0.5-4.9,2.2-5.7,5c-0.8,2.8-0.1,5.4,2.1,7.3
		c2.3,2,4.9,2.4,7.7,1.2c2.2-1,4.4-1.9,6.8-1.6c2.5,0.3,5,0.9,7.5,1.6c1.4,0.4,2.2,1.6,2.2,3c-0.1,2.5-0.3,4.9-0.5,7.3
		c-0.6-0.3-1.7-0.7-2.8-1.1c-3.6-1.5-7.6-0.1-9.3,3.3c-1.7,3.3-0.5,7.4,2.6,9.3c3.3,2,7.4,1.1,9.6-2c0.6-0.9,1.4-1.8,2-2.6l5.2,8.3
		c-0.8,0.6-1.6,1.3-2.5,1.9c-2.2,1.5-4.6,1.9-7.2,2.2c-3,0.4-5.1,2.2-5.9,5.1c-0.8,2.9,0,5.5,2.3,7.5c2.2,1.9,5.3,2.2,7.9,0.8
		c2.5-1.3,3.6-3.4,3.9-6.2c0.3-3.5,1.7-6.5,4.3-9.1c3.5,3,7.3,5.1,11.8,6.2c-0.3,1.2-0.6,2.3-0.9,3.3c-0.9,3.7-3,6.6-6.2,8.8
		c-3.1,2.1-4,6.3-2.1,9.4c1.9,3.3,6,4.5,9.3,2.8c3.4-1.7,5.1-5.7,3.4-9.1c-2.4-4.9-1.8-9.6-0.1-14.2l10.5-0.6
		c-0.2,0.7-0.5,1.6-0.8,2.4c-0.9,2.7-0.4,5.1,1.5,7.2c2,2.2,4.5,2.9,7.4,2c2.9-0.9,4.6-2.9,4.9-5.9c0.4-2.9-0.8-5.3-3.2-6.9
		c-0.8-0.6-1.7-1.1-2.7-1.7l5.2-3.7c0.4,0.5,0.9,1,1.3,1.5c1.9,2.4,2.7,5.1,3,8.1c0.3,2.9,1.9,5,4.7,6c2.7,1,5.3,0.4,7.4-1.6
		c2.1-2.1,2.7-4.6,1.8-7.4c-0.9-2.8-3-4.3-5.9-4.8c-1.7-0.3-3.5-0.6-5.1-1.1c-1.8-0.6-3.3-1.7-4.4-3c1.6-2.7,3.1-5.3,4.6-7.8
		c0.8-1.3,2.3-1.9,3.9-1.5c1.1,0.3,2.2,0.6,3.3,0.9c3.7,0.9,6.5,2.9,8.7,6.1c1.6,2.4,4.6,3.6,7.5,2.9c2.9-0.7,5.1-3,5.5-6
		C110.6,63.8,109.8,61.5,107.6,59.9z"/>
	<path class="st2" d="M40,58.7c0.8,2.1,2,4,3.5,5.7c1.5,1.7,3.3,3,5.4,4c2.1,1,4.4,1.5,6.9,1.5c1.4,0,2.9-0.2,4.4-0.5
		c1.5-0.3,3-0.9,4.3-1.5c1.3-0.7,2.5-1.5,3.5-2.5c1-1,1.8-2.1,2.3-3.4l-7.6-4.5c-0.3,0.8-0.7,1.4-1.2,2c-0.5,0.5-1,1-1.7,1.3
		c-0.6,0.3-1.3,0.6-2,0.7c-0.7,0.2-1.3,0.2-2,0.2c-1.2,0-2.3-0.2-3.3-0.7c-1-0.5-1.8-1.2-2.5-2c-0.7-0.8-1.2-1.8-1.5-2.9
		c-0.3-1.1-0.5-2.2-0.5-3.4c0-1.1,0.2-2.1,0.5-3.2c0.3-1.1,0.8-2,1.4-2.9c0.6-0.8,1.4-1.5,2.4-2.1c1-0.5,2.1-0.8,3.5-0.8
		c0.6,0,1.3,0.1,2,0.2c0.7,0.1,1.4,0.4,2,0.7c0.6,0.3,1.2,0.8,1.8,1.3c0.5,0.5,1,1.2,1.3,2l7.1-5.1c-1.2-2.2-3-4-5.4-5.4
		c-2.4-1.4-5.3-2-8.6-2c-2.8,0-5.2,0.5-7.3,1.5c-2.1,1-4,2.3-5.5,3.9c-1.5,1.6-2.7,3.4-3.4,5.4c-0.8,2-1.2,4.1-1.2,6.2
		C38.8,54.4,39.2,56.5,40,58.7z"/>
</g>
</svg>
